<svg width="142" height="35" viewBox="0 0 142 35" fill="none" xmlns="http://www.w3.org/2000/svg">
<g clip-path="url(#clip0_291_4046)">
<path d="M4.90625 0H29.1406C31.5641 0 33.5469 1.96875 33.5469 4.375V30.625C33.5469 33.0312 31.5641 35 29.1406 35H4.90625C2.48281 35 0.5 33.0312 0.5 30.625V4.375C0.5 1.96875 2.48281 0 4.90625 0Z" fill="white"/>
<path d="M25.3443 15.7076C25.4404 16.5187 25.4884 17.3775 25.4884 18.284C25.4404 19.1906 25.3443 20.1448 25.104 21.0991C24.8157 22.101 24.3832 23.0076 23.7585 23.9141C23.4221 24.3435 23.0858 24.7729 22.6533 25.1546C22.2208 25.5363 21.7403 25.918 21.2117 26.2043C20.1545 26.8246 18.809 27.1108 17.5596 27.0631C16.9349 27.0631 16.3102 26.92 15.7336 26.7769C15.157 26.6337 14.6284 26.3952 14.0998 26.1566C13.0907 25.6318 12.1776 24.9161 11.4088 24.0572C9.87108 22.2919 9.10223 20.2402 8.76586 18.3317C8.57364 17.3775 8.47754 16.4232 8.42948 15.5167C8.38143 14.6102 8.38143 13.7513 8.38143 12.9402C8.38143 11.318 8.42948 9.7912 8.33338 8.45525C8.18922 7.69185 16.5986 7.31015 16.4063 8.59839C16.2622 10.3637 15.9739 11.9383 15.7816 13.4651C15.6855 14.2285 15.5894 14.9442 15.4933 15.5644C15.4453 16.1847 15.3972 16.8049 15.4453 17.4252C15.4453 17.9978 15.5414 18.5226 15.6375 19.0474C15.7816 19.5246 15.9258 20.0017 16.118 20.288C16.5505 21.0036 17.3194 21.5762 17.944 21.7193C18.2804 21.8148 18.5207 21.8148 18.8571 21.7193C19.0493 21.6716 19.1934 21.5762 19.3857 21.4808C19.5779 21.3853 19.7701 21.1945 19.9142 21.0514C20.2506 20.7174 20.587 20.2402 20.7792 19.7631C21.0195 19.2383 21.1636 18.6657 21.3078 17.9978C21.4039 17.3298 21.4519 16.6618 21.5 15.8984C21.5 15.5167 21.5 15.135 21.5 14.801V14.2285V13.6559C21.4519 12.1291 21.3078 10.4592 21.5 8.74152C21.5961 7.97812 22.3169 7.69185 22.9416 7.78727C23.5663 7.8827 24.191 8.2644 24.239 8.88466C24.2871 10.2683 24.5754 11.6997 24.8637 13.2742L24.9598 13.8945L25.0559 14.5147C25.2001 14.8964 25.2962 15.3259 25.3443 15.7076Z" fill="#163A5F"/>
<path d="M60.6929 8.28932C61.8087 8.28932 62.7386 9.21259 62.7386 10.3205V17.799C62.7386 23.0616 58.4612 27.3087 53.161 27.3087C47.8608 27.3087 43.5834 23.0616 43.5834 17.799V10.3205C43.5834 9.21259 44.5132 8.28932 45.6291 8.28932C46.7449 8.28932 47.6748 9.21259 47.6748 10.3205V17.799C47.6748 20.8458 50.0924 23.2463 53.161 23.2463C56.2295 23.2463 58.6472 20.8458 58.6472 17.799V10.3205C58.6472 9.21259 59.577 8.28932 60.6929 8.28932ZM74.0829 8.28932C79.3832 8.28932 83.6605 12.5364 83.6605 17.799C83.6605 23.0616 79.3832 27.3087 74.0829 27.3087C72.0372 27.3087 70.1775 26.6624 68.5967 25.5545V32.1097C68.5967 33.2176 67.6669 34.1409 66.551 34.1409C65.4352 34.1409 64.5053 33.2176 64.5053 32.1097V10.3205C64.5053 9.21259 65.4352 8.28932 66.551 8.28932C67.5739 8.28932 68.4108 9.02794 68.5967 10.0435C70.1775 8.93561 72.0372 8.28932 74.0829 8.28932ZM74.0829 23.2463C77.0585 23.2463 79.5691 20.8458 79.5691 17.799C79.5691 14.7522 77.1515 12.3517 74.0829 12.3517C71.1074 12.3517 68.5967 14.7522 68.5967 17.799C68.5967 20.8458 71.1074 23.2463 74.0829 23.2463ZM112.672 8.28932C113.788 8.28932 114.718 9.21259 114.718 10.3205V25.2775C114.718 26.3854 113.788 27.3087 112.672 27.3087C111.649 27.3087 110.813 26.5701 110.627 25.5545C109.139 26.6624 107.186 27.3087 105.14 27.3087C99.8402 27.3087 95.5628 23.0616 95.5628 17.799C95.5628 12.5364 99.8402 8.28932 105.14 8.28932C107.186 8.28932 109.046 8.93561 110.627 10.0435C110.813 9.02794 111.649 8.28932 112.672 8.28932ZM105.14 23.2463C108.209 23.2463 110.627 20.8458 110.627 17.799C110.627 14.7522 108.209 12.3517 105.14 12.3517C102.072 12.3517 99.6542 14.7522 99.6542 17.799C99.6542 20.8458 102.165 23.2463 105.14 23.2463ZM126.062 8.28932C131.363 8.28932 135.64 12.5364 135.64 17.799C135.64 23.0616 131.363 27.2164 126.062 27.2164C124.017 27.2164 122.157 26.5701 120.576 25.4621V32.0174C120.576 33.1253 119.646 34.0486 118.53 34.0486C117.415 34.0486 116.485 33.1253 116.485 32.0174V10.3205C116.485 9.21259 117.415 8.28932 118.53 8.28932C119.553 8.28932 120.39 9.02794 120.576 10.0435C122.157 8.93561 124.017 8.28932 126.062 8.28932ZM126.062 23.2463C129.038 23.2463 131.549 20.8458 131.549 17.799C131.549 14.7522 129.131 12.3517 126.062 12.3517C122.994 12.3517 120.576 14.7522 120.576 17.799C120.576 20.8458 123.087 23.2463 126.062 23.2463ZM139.452 8.28932C140.568 8.28932 141.498 9.21259 141.498 10.3205V25.2775C141.498 26.3854 140.568 27.3087 139.452 27.3087C138.337 27.3087 137.407 26.3854 137.407 25.2775V10.3205C137.407 9.21259 138.337 8.28932 139.452 8.28932ZM137.593 4.22693C137.5 4.1346 137.5 3.94995 137.5 3.85762C137.5 3.7653 137.5 3.58064 137.5 3.48832C137.5 3.39599 137.5 3.21134 137.5 3.11901C137.5 3.02668 137.593 2.84203 137.593 2.7497C137.593 2.65737 137.686 2.47272 137.779 2.38039C137.872 2.28806 137.965 2.19574 138.058 2.10341C138.151 2.01108 138.244 1.91876 138.337 1.82643C138.43 1.7341 138.523 1.7341 138.709 1.64178C138.895 1.54945 138.987 1.54945 139.08 1.54945C139.731 1.45712 140.475 1.64178 140.94 2.10341C141.033 2.19574 141.126 2.28806 141.219 2.38039C141.312 2.47272 141.312 2.56505 141.405 2.7497C141.498 2.93435 141.498 3.02668 141.498 3.11901C141.498 3.21134 141.498 3.39599 141.498 3.48832C141.498 3.58064 141.498 3.7653 141.498 3.85762C141.498 3.94995 141.405 4.1346 141.405 4.22693C141.312 4.31926 141.312 4.50391 141.219 4.59624C141.126 4.68857 141.033 4.78089 140.94 4.87322C140.847 4.96555 140.754 5.05788 140.661 5.1502C140.568 5.24253 140.475 5.24253 140.289 5.33486C140.103 5.42718 140.01 5.42718 139.917 5.42718C139.824 5.42718 139.638 5.42718 139.545 5.42718C139.452 5.42718 139.266 5.42718 139.173 5.42718C139.08 5.42718 138.895 5.33486 138.802 5.33486C138.709 5.33486 138.523 5.24253 138.43 5.1502C138.337 5.05788 138.244 4.96555 138.151 4.87322C138.058 4.78089 137.965 4.68857 137.872 4.59624C137.686 4.50391 137.593 4.41159 137.593 4.22693Z" fill="white"/>
</g>
<defs>
<clipPath id="clip0_291_4046">
<rect width="141" height="35" fill="white" transform="translate(0.5)"/>
</clipPath>
</defs>
</svg>
