<svg width="288" height="73" viewBox="0 0 288 73" fill="none" xmlns="http://www.w3.org/2000/svg">
<g clip-path="url(#clip0_291_5462)">
<path d="M9 0.5H58.5C63.45 0.5 67.5 4.55 67.5 9.5V63.5C67.5 68.45 63.45 72.5 58.5 72.5H9C4.05 72.5 0 68.45 0 63.5V9.5C0 4.55 4.05 0.5 9 0.5Z" fill="white"/>
<path d="M50.7455 32.8129C50.9418 34.4815 51.0399 36.2482 51.0399 38.1131C50.9418 39.978 50.7455 41.941 50.2547 43.904C49.6658 45.9652 48.7824 47.8301 47.5065 49.695C46.8194 50.5783 46.1323 51.4617 45.249 52.2469C44.3656 53.0321 43.3841 53.8173 42.3044 54.4062C40.1451 55.6822 37.3969 56.2711 34.8449 56.173C33.569 56.173 32.293 55.8785 31.1152 55.584C29.9373 55.2896 28.8577 54.7988 27.778 54.3081C25.7168 53.2284 23.852 51.7561 22.2815 49.9894C19.1407 46.3578 17.5703 42.1373 16.8832 38.2112C16.4906 36.2482 16.2943 34.2852 16.1961 32.4203C16.098 30.5554 16.098 28.7887 16.098 27.1201C16.098 23.783 16.1961 20.6421 15.9998 17.8939C15.7054 16.3235 32.8819 15.5382 32.4893 18.1883C32.1948 21.8199 31.6059 25.0589 31.2133 28.1998C31.017 29.7702 30.8207 31.2425 30.6244 32.5185C30.5263 33.7944 30.4281 35.0704 30.5263 36.3464C30.5263 37.5242 30.7226 38.6038 30.9189 39.6835C31.2133 40.665 31.5078 41.6465 31.9004 42.2354C32.7837 43.7077 34.3542 44.8855 35.6301 45.18C36.3172 45.3763 36.808 45.3763 37.495 45.18C37.8876 45.0818 38.1821 44.8855 38.5747 44.6892C38.9673 44.4929 39.3599 44.1003 39.6544 43.8059C40.3414 43.1188 41.0285 42.1373 41.4211 41.1558C41.9118 40.0761 42.2063 38.8983 42.5007 37.5242C42.697 36.1501 42.7952 34.7759 42.8933 33.2055C42.8933 32.4203 42.8933 31.6351 42.8933 30.948V29.7702V28.5924C42.7952 25.4515 42.5007 22.0162 42.8933 18.4828C43.0897 16.9124 44.5619 16.3235 45.8379 16.5198C47.1139 16.7161 48.3898 17.5013 48.488 18.7772C48.5861 21.6236 49.175 24.5682 49.764 27.8072L49.9603 29.0831L50.1566 30.3591C50.451 31.1443 50.6473 32.0277 50.7455 32.8129Z" fill="#3655A5"/>
<path d="M122.947 17.552C125.226 17.552 127.126 19.4513 127.126 21.7305V37.1148C127.126 47.9408 118.389 56.6776 107.563 56.6776C96.7368 56.6776 88 47.9408 88 37.1148V21.7305C88 19.4513 89.8993 17.552 92.1785 17.552C94.4576 17.552 96.3569 19.4513 96.3569 21.7305V37.1148C96.3569 43.3825 101.295 48.3206 107.563 48.3206C113.83 48.3206 118.769 43.3825 118.769 37.1148V21.7305C118.769 19.4513 120.668 17.552 122.947 17.552ZM150.297 17.552C161.123 17.552 169.86 26.2888 169.86 37.1148C169.86 47.9408 161.123 56.6776 150.297 56.6776C146.119 56.6776 142.32 55.348 139.091 53.0689V66.5539C139.091 68.8331 137.192 70.7324 134.913 70.7324C132.634 70.7324 130.734 68.8331 130.734 66.5539V21.7305C130.734 19.4513 132.634 17.552 134.913 17.552C137.002 17.552 138.711 19.0714 139.091 21.1607C142.32 18.8815 146.119 17.552 150.297 17.552ZM150.297 48.3206C156.375 48.3206 161.503 43.3825 161.503 37.1148C161.503 30.8471 156.565 25.9089 150.297 25.9089C144.219 25.9089 139.091 30.8471 139.091 37.1148C139.091 43.3825 144.219 48.3206 150.297 48.3206ZM229.118 17.552C231.397 17.552 233.296 19.4513 233.296 21.7305V52.4991C233.296 54.7783 231.397 56.6776 229.118 56.6776C227.029 56.6776 225.319 55.1581 224.939 53.0689C221.901 55.348 217.912 56.6776 213.734 56.6776C202.908 56.6776 194.171 47.9408 194.171 37.1148C194.171 26.2888 202.908 17.552 213.734 17.552C217.912 17.552 221.711 18.8815 224.939 21.1607C225.319 19.0714 227.029 17.552 229.118 17.552ZM213.734 48.3206C220.001 48.3206 224.939 43.3825 224.939 37.1148C224.939 30.8471 220.001 25.9089 213.734 25.9089C207.466 25.9089 202.528 30.8471 202.528 37.1148C202.528 43.3825 207.656 48.3206 213.734 48.3206ZM256.468 17.552C267.294 17.552 276.031 26.2888 276.031 37.1148C276.031 47.9408 267.294 56.4876 256.468 56.4876C252.289 56.4876 248.491 55.1581 245.262 52.879V66.364C245.262 68.6431 243.363 70.5424 241.083 70.5424C238.804 70.5424 236.905 68.6431 236.905 66.364V21.7305C236.905 19.4513 238.804 17.552 241.083 17.552C243.173 17.552 244.882 19.0714 245.262 21.1607C248.491 18.8815 252.289 17.552 256.468 17.552ZM256.468 48.3206C262.546 48.3206 267.674 43.3825 267.674 37.1148C267.674 30.8471 262.735 25.9089 256.468 25.9089C250.2 25.9089 245.262 30.8471 245.262 37.1148C245.262 43.3825 250.39 48.3206 256.468 48.3206ZM283.818 17.552C286.097 17.552 287.996 19.4513 287.996 21.7305V52.4991C287.996 54.7783 286.097 56.6776 283.818 56.6776C281.538 56.6776 279.639 54.7783 279.639 52.4991V21.7305C279.639 19.4513 281.538 17.552 283.818 17.552ZM280.019 9.1951C279.829 9.00517 279.829 8.62531 279.829 8.43538C279.829 8.24545 279.829 7.86559 279.829 7.67566C279.829 7.48573 279.829 7.10587 279.829 6.91594C279.829 6.72601 280.019 6.34615 280.019 6.15622C280.019 5.96629 280.209 5.58643 280.399 5.3965C280.589 5.20657 280.779 5.01664 280.969 4.82671C281.159 4.63678 281.349 4.44685 281.538 4.25692C281.728 4.06699 281.918 4.06699 282.298 3.87706C282.678 3.68713 282.868 3.68713 283.058 3.68713C284.387 3.4972 285.907 3.87706 286.857 4.82671C287.046 5.01664 287.236 5.20657 287.426 5.3965C287.616 5.58643 287.616 5.77636 287.806 6.15622C287.996 6.53608 287.996 6.72601 287.996 6.91594C287.996 7.10587 287.996 7.48573 287.996 7.67566C287.996 7.86559 287.996 8.24545 287.996 8.43538C287.996 8.62531 287.806 9.00517 287.806 9.1951C287.616 9.38503 287.616 9.76488 287.426 9.95481C287.236 10.1447 287.046 10.3347 286.857 10.5246C286.667 10.7145 286.477 10.9045 286.287 11.0944C286.097 11.2843 285.907 11.2843 285.527 11.4743C285.147 11.6642 284.957 11.6642 284.767 11.6642C284.577 11.6642 284.198 11.6642 284.008 11.6642C283.818 11.6642 283.438 11.6642 283.248 11.6642C283.058 11.6642 282.678 11.4743 282.488 11.4743C282.298 11.4743 281.918 11.2843 281.728 11.0944C281.538 10.9045 281.349 10.7145 281.159 10.5246C280.969 10.3347 280.779 10.1447 280.589 9.95481C280.209 9.76488 280.019 9.57495 280.019 9.1951Z" fill="white"/>
</g>
<defs>
<clipPath id="clip0_291_5462">
<rect width="288" height="72" fill="white" transform="translate(0 0.5)"/>
</clipPath>
</defs>
</svg>
